<?xml version="1.0" encoding="UTF-8" standalone="no"?>
<!-- Created with Inkscape (http://www.inkscape.org/) -->

<svg
   xmlns:dc="http://purl.org/dc/elements/1.1/"
   xmlns:cc="http://creativecommons.org/ns#"
   xmlns:rdf="http://www.w3.org/1999/02/22-rdf-syntax-ns#"
   xmlns:svg="http://www.w3.org/2000/svg"
   xmlns="http://www.w3.org/2000/svg"
   xmlns:xlink="http://www.w3.org/1999/xlink"
   xmlns:sodipodi="http://sodipodi.sourceforge.net/DTD/sodipodi-0.dtd"
   xmlns:inkscape="http://www.inkscape.org/namespaces/inkscape"
   width="210mm"
   height="297mm"
   viewBox="0 0 744.09448819 1052.3622047"
   id="svg2"
   version="1.1"
   inkscape:version="0.91 r13725"
   sodipodi:docname="drawing-2.svg">
  <defs
     id="defs4">
    <linearGradient
       inkscape:collect="always"
       id="linearGradient4359">
      <stop
         style="stop-color:#ffffff;stop-opacity:1;"
         offset="0"
         id="stop4361" />
      <stop
         style="stop-color:#000000;stop-opacity:1"
         offset="1"
         id="stop4363" />
    </linearGradient>
    <filter
       inkscape:collect="always"
       style="color-interpolation-filters:sRGB"
       id="filter4355"
       x="-0.051004743"
       width="1.1020095"
       y="-0.18976765"
       height="1.3795353">
      <feGaussianBlur
         inkscape:collect="always"
         stdDeviation="5.37675"
         id="feGaussianBlur4357" />
    </filter>
    <linearGradient
       inkscape:collect="always"
       xlink:href="#linearGradient4359"
       id="linearGradient4365"
       x1="217.95139"
       y1="132.8994"
       x2="216.90372"
       y2="191.8994"
       gradientUnits="userSpaceOnUse" />
    <linearGradient
       inkscape:collect="always"
       xlink:href="#linearGradient4359"
       id="linearGradient4373"
       x1="260.4877"
       y1="22.825781"
       x2="262.36945"
       y2="121.60321"
       gradientUnits="userSpaceOnUse" />
    <linearGradient
       inkscape:collect="always"
       xlink:href="#linearGradient4359"
       id="linearGradient4389"
       gradientUnits="userSpaceOnUse"
       x1="260.4877"
       y1="22.825781"
       x2="262.36945"
       y2="121.60321" />
    <linearGradient
       inkscape:collect="always"
       xlink:href="#linearGradient4359"
       id="linearGradient4391"
       gradientUnits="userSpaceOnUse"
       x1="260.4877"
       y1="22.825781"
       x2="262.36945"
       y2="121.60321" />
    <linearGradient
       inkscape:collect="always"
       xlink:href="#linearGradient4359"
       id="linearGradient4393"
       gradientUnits="userSpaceOnUse"
       x1="217.95139"
       y1="132.8994"
       x2="216.90372"
       y2="191.8994" />
    <linearGradient
       inkscape:collect="always"
       xlink:href="#linearGradient4359"
       id="linearGradient4395"
       gradientUnits="userSpaceOnUse"
       x1="217.95139"
       y1="132.8994"
       x2="216.90372"
       y2="191.8994" />
    <linearGradient
       inkscape:collect="always"
       xlink:href="#linearGradient4359"
       id="linearGradient4397"
       gradientUnits="userSpaceOnUse"
       x1="217.95139"
       y1="132.8994"
       x2="216.90372"
       y2="191.8994" />
    <linearGradient
       inkscape:collect="always"
       xlink:href="#linearGradient4359"
       id="linearGradient4399"
       gradientUnits="userSpaceOnUse"
       x1="217.95139"
       y1="132.8994"
       x2="216.90372"
       y2="191.8994" />
    <linearGradient
       inkscape:collect="always"
       xlink:href="#linearGradient4359"
       id="linearGradient4401"
       gradientUnits="userSpaceOnUse"
       x1="217.95139"
       y1="132.8994"
       x2="216.90372"
       y2="191.8994" />
    <linearGradient
       inkscape:collect="always"
       xlink:href="#linearGradient4359"
       id="linearGradient4403"
       gradientUnits="userSpaceOnUse"
       x1="217.95139"
       y1="132.8994"
       x2="216.90372"
       y2="191.8994" />
  </defs>
  <sodipodi:namedview
     id="base"
     pagecolor="#ffffff"
     bordercolor="#666666"
     borderopacity="1.0"
     inkscape:pageopacity="0.0"
     inkscape:pageshadow="2"
     inkscape:zoom="1.4142136"
     inkscape:cx="274.36024"
     inkscape:cy="566.30069"
     inkscape:document-units="px"
     inkscape:current-layer="layer1"
     showgrid="false"
     inkscape:window-width="1276"
     inkscape:window-height="755"
     inkscape:window-x="4"
     inkscape:window-y="1"
     inkscape:window-maximized="1" />
  <metadata
     id="metadata7">
    <rdf:RDF>
      <cc:Work
         rdf:about="">
        <dc:format>image/svg+xml</dc:format>
        <dc:type
           rdf:resource="http://purl.org/dc/dcmitype/StillImage" />
        <dc:title></dc:title>
      </cc:Work>
    </rdf:RDF>
  </metadata>
  <g
     inkscape:label="Layer 1"
     inkscape:groupmode="layer"
     id="layer1">
    <rect
       style="opacity:1;fill:#000000;fill-opacity:1;stroke:#ffffff;stroke-width:2;stroke-linecap:round;stroke-linejoin:miter;stroke-miterlimit:4;stroke-dasharray:none;stroke-dashoffset:81.09999847;stroke-opacity:1;filter:url(#filter4355)"
       id="rect4337"
       width="253"
       height="68"
       x="119"
       y="158.3622"
       transform="matrix(0.9393654,0,0,1.0102342,-21.114203,-83.936587)" />
    <g
       id="g4168"
       style="fill:#6b0000;fill-opacity:1;stroke:url(#linearGradient4365);stroke-width:2;stroke-linecap:round;stroke-linejoin:miter;stroke-miterlimit:4;stroke-dasharray:none;stroke-opacity:1"
       transform="translate(-1.816234,-46.151497)">
      <path
         d="m 132.43942,137.30858 0,5.8399 q -3.40908,-1.63043 -6.43278,-2.43081 -3.02371,-0.8004 -5.8399,-0.8004 -4.89129,0 -7.55927,1.89723 -2.63833,1.89722 -2.63833,5.39523 0,2.93478 1.74901,4.44663 1.77865,1.48221 6.69958,2.40118 l 3.61659,0.7411 q 6.69958,1.27471 9.8715,4.50592 3.20157,3.20156 3.20157,8.5968 0,6.43279 -4.32804,9.75293 -4.29841,3.32014 -12.62842,3.32014 -3.14228,0 -6.69958,-0.71145 -3.52765,-0.71147 -7.32211,-2.10474 l 0,-6.16599 q 3.64624,2.04545 7.14425,3.08301 3.49801,1.03753 6.87744,1.03753 5.12844,0 7.915,-2.0158 2.78655,-2.0158 2.78655,-5.75097 0,-3.26085 -2.01581,-5.09879 -1.98615,-1.83794 -6.55136,-2.75691 l -3.64623,-0.71145 q -6.69958,-1.334 -9.69364,-4.17983 -2.99406,-2.84585 -2.99406,-7.915 0,-5.86954 4.12054,-9.24898 4.15018,-3.37943 11.413,-3.37943 3.11264,0 6.34385,0.56323 3.23122,0.56324 6.61065,1.68972 z"
         style="font-style:normal;font-weight:normal;font-size:35px;line-height:125%;font-family:sans-serif;letter-spacing:0px;word-spacing:0px;fill:#6b0000;fill-opacity:1;stroke:url(#linearGradient4393);stroke-width:2;stroke-linecap:round;stroke-linejoin:miter;stroke-miterlimit:4;stroke-dasharray:none;stroke-opacity:1"
         id="path4150"
         inkscape:connector-curvature="0" />
      <path
         d="m 154.27136,163.4251 q -6.61066,0 -9.16006,1.51185 -2.54939,1.51185 -2.54939,5.15808 0,2.90513 1.89723,4.62449 1.92687,1.68972 5.21737,1.68972 4.53556,0 7.26282,-3.20157 2.75691,-3.23122 2.75691,-8.56717 l 0,-1.2154 -5.42488,0 z m 10.87941,-2.25296 0,18.94262 -5.45453,0 0,-5.0395 q -1.86758,3.02369 -4.65414,4.47625 -2.78654,1.42292 -6.81815,1.42292 -5.09879,0 -8.12251,-2.84583 -2.99405,-2.87549 -2.99405,-7.67784 0,-5.60275 3.73516,-8.4486 3.76481,-2.84583 11.2055,-2.84583 l 7.64819,0 0,-0.5336 q 0,-3.7648 -2.49011,-5.81025 -2.46047,-2.0751 -6.93673,-2.0751 -2.84585,0 -5.54346,0.68183 -2.69763,0.68182 -5.18774,2.04544 l 0,-5.0395 q 2.99407,-1.15613 5.81026,-1.71938 2.8162,-0.59287 5.48416,-0.59287 7.20355,0 10.76085,3.73517 3.5573,3.73516 3.5573,11.32407 z"
         style="font-style:normal;font-weight:normal;font-size:35px;line-height:125%;font-family:sans-serif;letter-spacing:0px;word-spacing:0px;fill:#6b0000;fill-opacity:1;stroke:url(#linearGradient4395);stroke-width:2;stroke-linecap:round;stroke-linejoin:miter;stroke-miterlimit:4;stroke-dasharray:none;stroke-opacity:1"
         id="path4152"
         inkscape:connector-curvature="0" />
      <path
         sodipodi:nodetypes="csscccsscccccccc"
         d="m 180.87799,183.19775 c -1.5415,3.95255 -3.04347,6.53159 -4.50592,7.73712 -1.46245,1.20553 -3.41896,1.8083 -5.86955,1.8083 l -66.35769,0 8,-2.28259 -8,-2.2826 65.20158,0 c 1.50197,0 2.66798,-0.35573 3.49801,-1.0672 0.83003,-0.71146 1.749,-2.3913 2.7569,-5.03951 l 0.97826,-2.49011 -13.42881,-32.66787 5.78062,0 10.37545,25.9683 10.37546,-25.9683 5.78061,0 z"
         style="font-style:normal;font-weight:normal;font-size:35px;line-height:125%;font-family:sans-serif;letter-spacing:0px;word-spacing:0px;fill:#6b0000;fill-opacity:1;stroke:url(#linearGradient4397);stroke-width:2;stroke-linecap:round;stroke-linejoin:miter;stroke-miterlimit:4;stroke-dasharray:none;stroke-opacity:1"
         id="path4154"
         inkscape:connector-curvature="0" />
      <path
         sodipodi:nodetypes="ccccccccccccccccccc"
         d="m 272.028,135.85602 5.98813,0 0,5.53234 0,5.53234 0,5.53235 0,5.53234 0,5.53234 0,5.53234 0,5.53235 0,5.53234 -5.98813,0 0,-5.53234 0,-5.53235 0,-5.53234 0,-5.53234 0,-5.53234 0,-5.53235 0,-5.53234 z"
         style="font-style:normal;font-weight:normal;font-size:35px;line-height:125%;font-family:sans-serif;letter-spacing:0px;word-spacing:0px;fill:#6b0000;fill-opacity:1;stroke:url(#linearGradient4399);stroke-width:2;stroke-linecap:round;stroke-linejoin:miter;stroke-miterlimit:4;stroke-dasharray:none;stroke-opacity:1"
         id="path4156"
         inkscape:connector-curvature="0" />
      <path
         sodipodi:nodetypes="cccccscsccscscccccc"
         d="m 289.50227,137.48644 0,9.42685 11.23513,0 0,4.23912 -11.23513,0 0,18.02366 c 0,2.7075 0.36561,4.44662 1.09682,5.21736 0.75099,0.77075 4.26284,1.15612 6.53557,1.15612 l 1.60274,0 0,4.56521 -3.60274,0 c -4.20947,0 -7.11461,-0.78063 -8.7154,-2.34189 -1.60079,-1.58103 -2.40118,-4.44663 -2.40118,-8.5968 l 0,-18.02366 -4.00195,0 0,-4.23912 4.00195,0 0,-9.42685 z"
         style="font-style:normal;font-weight:normal;font-size:35px;line-height:125%;font-family:sans-serif;letter-spacing:0px;word-spacing:0px;fill:#6b0000;fill-opacity:1;stroke:url(#linearGradient4401);stroke-width:2;stroke-linecap:round;stroke-linejoin:miter;stroke-miterlimit:4;stroke-dasharray:none;stroke-opacity:1"
         id="path4158"
         inkscape:connector-curvature="0" />
      <path
         sodipodi:nodetypes="aaaaacccccc"
         d="m 303.85352,173.77296 c 1.83507,-1.83507 5.95046,-1.83507 7.78553,0 1.68621,1.68621 1.68621,5.46777 0,7.15398 -1.83507,1.83507 -5.95046,1.83507 -7.78553,0 -1.68621,-1.68621 -1.68621,-5.46777 0,-7.15398 z m 0.77123,-37.91694 6.2579,0 0,33.05088 -3.11939,0.34948 -3.13851,-0.35076 z"
         style="font-style:normal;font-weight:normal;font-size:35px;line-height:125%;font-family:sans-serif;letter-spacing:0px;word-spacing:0px;fill:#6b0000;fill-opacity:1;stroke:url(#linearGradient4403);stroke-width:2;stroke-linecap:round;stroke-linejoin:miter;stroke-miterlimit:4;stroke-dasharray:none;stroke-opacity:1"
         id="path4160"
         inkscape:connector-curvature="0" />
    </g>
    <path
       sodipodi:nodetypes="cazazacaaacaaac"
       inkscape:connector-curvature="0"
       id="path4311"
       d="m 44.42857,268.8622 c 0,0 -8.060394,4.27146 -11.69203,7 -16.042718,12.05331 -21.70111,34.43965 -44.07789,41 -22.37678,6.56035 -46.066881,-6 -69.23008,-6 -23.1632,0 -46.8533,12.56035 -69.23008,6 -22.37678,-6.56035 -28.03516,-28.94669 -44.07788,-41 -3.63164,-2.72854 -11.69204,-7 -11.69204,-7 0,0 21.62135,-0.19212 31.25,4 12.42411,5.4092 18.36624,21.80156 31.25,26 9.92433,3.23405 20.94083,-0.36523 31.25,-2 10.61989,-1.68405 31.25,-8 31.25,-8 0,0 20.630111,6.31595 31.25,8 10.309166,1.63477 21.32567,5.23405 31.25,2 12.8837568,-4.19844 18.82588803,-20.5908 31.25,-26 9.628649,-4.19212 31.25,-4 31.25,-4 z"
       style="opacity:1;fill:#550000;fill-opacity:1;stroke:#ffffff;stroke-width:5;stroke-linejoin:round;stroke-miterlimit:4;stroke-dasharray:none;stroke-dashoffset:81.09999847;stroke-opacity:1" />
    <path
       style="opacity:1;fill:#550000;fill-opacity:1;stroke:#ffffff;stroke-width:5;stroke-linejoin:round;stroke-miterlimit:4;stroke-dasharray:none;stroke-dashoffset:81.09999847;stroke-opacity:1"
       d="m -109.42104,220.8622 c 10.863114,1.70733 17.853146,16 28.84961,16 10.996464,0 17.986496,-14.29267 28.84961,-16 9.988821,-1.56992 20.491608,1.82758 29.76186,5.86536 18.407779,8.01774 31.1346744,25.75592 48.77782,35.33976 5.528972,3.00336 17.61071,6.79488 17.61071,6.79488 0,0 -21.003766,6.30205 -31.25,4 -12.0665547,-2.71102 -19.625299,-15.7789 -31.25,-20 -9.871036,-3.58432 -20.768301,-4.64707 -31.25,-4 -5.366077,0.33127 -10.344408,2.99012 -15.625,4 -5.15736,0.98632 -10.374173,2 -15.625,2 -5.250827,0 -10.46764,-1.01368 -15.625,-2 -5.28059,-1.00988 -10.25892,-3.66873 -15.625,-4 -10.4817,-0.64707 -21.37896,0.41568 -31.25,4 -11.6247,4.2211 -19.18345,17.28898 -31.25,20 -10.24623,2.30205 -31.25,-4 -31.25,-4 0,0 12.08174,-3.79152 17.61072,-6.79488 17.64314,-9.58383 30.37003,-27.32202 48.77781,-35.33976 9.27025,-4.03778 19.77304,-7.43528 29.76186,-5.86536 z"
       id="path4313"
       inkscape:connector-curvature="0"
       sodipodi:nodetypes="aaaaacaaaaaaaaacaaa" />
    <g
       transform="matrix(0.69198301,0,0,0.69198301,-207.18064,159.35669)"
       style="fill:#6b0000;fill-opacity:1;stroke:#ffffff;stroke-width:2;stroke-linecap:round;stroke-linejoin:miter;stroke-miterlimit:4;stroke-dasharray:none;stroke-opacity:1"
       id="g4315">
      <path
         inkscape:connector-curvature="0"
         id="path4317"
         style="font-style:normal;font-weight:normal;font-size:35px;line-height:125%;font-family:sans-serif;letter-spacing:0px;word-spacing:0px;fill:#6b0000;fill-opacity:1;stroke:#ffffff;stroke-width:2;stroke-linecap:round;stroke-linejoin:miter;stroke-miterlimit:4;stroke-dasharray:none;stroke-opacity:1"
         d="m 132.43942,137.30858 0,5.8399 q -3.40908,-1.63043 -6.43278,-2.43081 -3.02371,-0.8004 -5.8399,-0.8004 -4.89129,0 -7.55927,1.89723 -2.63833,1.89722 -2.63833,5.39523 0,2.93478 1.74901,4.44663 1.77865,1.48221 6.69958,2.40118 l 3.61659,0.7411 q 6.69958,1.27471 9.8715,4.50592 3.20157,3.20156 3.20157,8.5968 0,6.43279 -4.32804,9.75293 -4.29841,3.32014 -12.62842,3.32014 -3.14228,0 -6.69958,-0.71145 -3.52765,-0.71147 -7.32211,-2.10474 l 0,-6.16599 q 3.64624,2.04545 7.14425,3.08301 3.49801,1.03753 6.87744,1.03753 5.12844,0 7.915,-2.0158 2.78655,-2.0158 2.78655,-5.75097 0,-3.26085 -2.01581,-5.09879 -1.98615,-1.83794 -6.55136,-2.75691 l -3.64623,-0.71145 q -6.69958,-1.334 -9.69364,-4.17983 -2.99406,-2.84585 -2.99406,-7.915 0,-5.86954 4.12054,-9.24898 4.15018,-3.37943 11.413,-3.37943 3.11264,0 6.34385,0.56323 3.23122,0.56324 6.61065,1.68972 z" />
      <path
         inkscape:connector-curvature="0"
         id="path4319"
         style="font-style:normal;font-weight:normal;font-size:35px;line-height:125%;font-family:sans-serif;letter-spacing:0px;word-spacing:0px;fill:#6b0000;fill-opacity:1;stroke:#ffffff;stroke-width:2;stroke-linecap:round;stroke-linejoin:miter;stroke-miterlimit:4;stroke-dasharray:none;stroke-opacity:1"
         d="m 154.27136,163.4251 q -6.61066,0 -9.16006,1.51185 -2.54939,1.51185 -2.54939,5.15808 0,2.90513 1.89723,4.62449 1.92687,1.68972 5.21737,1.68972 4.53556,0 7.26282,-3.20157 2.75691,-3.23122 2.75691,-8.56717 l 0,-1.2154 -5.42488,0 z m 10.87941,-2.25296 0,18.94262 -5.45453,0 0,-5.0395 q -1.86758,3.02369 -4.65414,4.47625 -2.78654,1.42292 -6.81815,1.42292 -5.09879,0 -8.12251,-2.84583 -2.99405,-2.87549 -2.99405,-7.67784 0,-5.60275 3.73516,-8.4486 3.76481,-2.84583 11.2055,-2.84583 l 7.64819,0 0,-0.5336 q 0,-3.7648 -2.49011,-5.81025 -2.46047,-2.0751 -6.93673,-2.0751 -2.84585,0 -5.54346,0.68183 -2.69763,0.68182 -5.18774,2.04544 l 0,-5.0395 q 2.99407,-1.15613 5.81026,-1.71938 2.8162,-0.59287 5.48416,-0.59287 7.20355,0 10.76085,3.73517 3.5573,3.73516 3.5573,11.32407 z" />
      <path
         inkscape:connector-curvature="0"
         id="path4321"
         style="font-style:normal;font-weight:normal;font-size:35px;line-height:125%;font-family:sans-serif;letter-spacing:0px;word-spacing:0px;fill:#6b0000;fill-opacity:1;stroke:#ffffff;stroke-width:2;stroke-linecap:round;stroke-linejoin:miter;stroke-miterlimit:4;stroke-dasharray:none;stroke-opacity:1"
         d="m 180.87799,183.19775 c -1.5415,3.95255 -3.04347,6.53159 -4.50592,7.73712 -1.46245,1.20553 -3.41896,1.8083 -5.86955,1.8083 l -66.35769,0 8,-2.28259 -8,-2.2826 65.20158,0 c 1.50197,0 2.66798,-0.35573 3.49801,-1.0672 0.83003,-0.71146 1.749,-2.3913 2.7569,-5.03951 l 0.97826,-2.49011 -13.42881,-32.66787 5.78062,0 10.37545,25.9683 10.37546,-25.9683 5.78061,0 z"
         sodipodi:nodetypes="csscccsscccccccc" />
      <path
         inkscape:connector-curvature="0"
         id="path4323"
         style="font-style:normal;font-weight:normal;font-size:35px;line-height:125%;font-family:sans-serif;letter-spacing:0px;word-spacing:0px;fill:#6b0000;fill-opacity:1;stroke:#ffffff;stroke-width:2;stroke-linecap:round;stroke-linejoin:miter;stroke-miterlimit:4;stroke-dasharray:none;stroke-opacity:1"
         d="m 206.028,135.85602 5.98813,0 0,5.53234 0,5.53234 0,5.53235 0,5.53234 0,5.53234 0,5.53234 0,5.53235 0,5.53234 -5.98813,0 0,-5.53234 0,-5.53235 0,-5.53234 0,-5.53234 0,-5.53234 0,-5.53235 0,-5.53234 z"
         sodipodi:nodetypes="ccccccccccccccccccc" />
      <path
         inkscape:connector-curvature="0"
         id="path4325"
         style="font-style:normal;font-weight:normal;font-size:35px;line-height:125%;font-family:sans-serif;letter-spacing:0px;word-spacing:0px;fill:#6b0000;fill-opacity:1;stroke:#ffffff;stroke-width:2;stroke-linecap:round;stroke-linejoin:miter;stroke-miterlimit:4;stroke-dasharray:none;stroke-opacity:1"
         d="m 223.50227,137.48644 0,9.42685 11.23513,0 0,4.23912 -11.23513,0 0,18.02366 c 0,2.7075 0.36561,4.44662 1.09682,5.21736 0.75099,0.77075 4.26284,1.15612 6.53557,1.15612 l 1.60274,0 0,4.56521 -3.60274,0 c -4.20947,0 -7.11461,-0.78063 -8.7154,-2.34189 -1.60079,-1.58103 -2.40118,-4.44663 -2.40118,-8.5968 l 0,-18.02366 -4.00195,0 0,-4.23912 4.00195,0 0,-9.42685 z"
         sodipodi:nodetypes="cccccscsccscscccccc" />
      <path
         inkscape:connector-curvature="0"
         id="path4327"
         style="font-style:normal;font-weight:normal;font-size:35px;line-height:125%;font-family:sans-serif;letter-spacing:0px;word-spacing:0px;fill:#6b0000;fill-opacity:1;stroke:#ffffff;stroke-width:2;stroke-linecap:round;stroke-linejoin:miter;stroke-miterlimit:4;stroke-dasharray:none;stroke-opacity:1"
         d="m 237.85352,173.77296 c 1.83507,-1.83507 5.95046,-1.83507 7.78553,0 1.68621,1.68621 1.68621,5.46777 0,7.15398 -1.83507,1.83507 -5.95046,1.83507 -7.78553,0 -1.68621,-1.68621 -1.68621,-5.46777 0,-7.15398 z m 0.77123,-37.91694 6.2579,0 0,33.05088 -3.11939,0.34948 -3.13851,-0.35076 z"
         sodipodi:nodetypes="aaaaacccccc" />
    </g>
    <g
       id="g4333"
       transform="matrix(0.32396065,0,0,0.32396065,142.736,96.73305)"
       style="stroke:url(#linearGradient4373)">
      <path
         style="opacity:1;fill:#550000;fill-opacity:1;stroke:url(#linearGradient4389);stroke-width:5;stroke-linejoin:round;stroke-miterlimit:4;stroke-dasharray:none;stroke-dashoffset:81.09999847;stroke-opacity:1"
         d="m 386.42857,68.3622 c 0,0 -7.95659,4.41538 -11.69203,7 -15.42816,10.67504 -21.70111,28.43965 -44.07789,35 -22.37678,6.56035 -46.06688,-6 -69.23008,-6 -23.1632,0 -46.8533,12.56035 -69.23008,6 -22.37678,-6.56035 -28.64973,-24.32497 -44.07788,-35 -3.73544,-2.58462 -11.69204,-7 -11.69204,-7 l 31.25,-4 31.25,0 31.25,0 31.25,0 31.25,0 31.25,0 31.25,0 z"
         id="path4329"
         inkscape:connector-curvature="0"
         sodipodi:nodetypes="cazazaccccccccc" />
      <path
         sodipodi:nodetypes="aaaaacaaaaaaaaacaaa"
         inkscape:connector-curvature="0"
         id="path4331"
         d="m 232.57896,26.3622 c 10.86311,1.70733 17.85315,16 28.84961,16 10.99646,0 17.9865,-14.29267 28.84961,-16 9.98882,-1.56992 20.32758,2.22728 29.76186,5.86536 17.70327,6.82679 31.73325,21.00348 48.77782,29.33976 5.65222,2.76443 17.61071,6.79488 17.61071,6.79488 0,0 -20.76961,3.33198 -31.25,4 -10.39557,0.66261 -20.85443,0.66261 -31.25,0 -10.48038,-0.66802 -20.7683,-4.64707 -31.25,-4 -5.36607,0.33127 -10.34441,2.99012 -15.625,4 -5.15736,0.98632 -10.37417,2 -15.625,2 -5.25082,0 -10.46764,-1.01368 -15.625,-2 -5.28059,-1.00988 -10.25892,-3.66873 -15.625,-4 -10.4817,-0.64707 -20.76961,3.33198 -31.25,4 -10.39557,0.66261 -20.85443,0.66261 -31.25,0 -10.48038,-0.66802 -31.25,-4 -31.25,-4 0,0 11.95849,-4.03045 17.61072,-6.79488 17.04456,-8.33628 31.07454,-22.51297 48.77781,-29.33976 9.43428,-3.63808 19.77304,-7.43528 29.76186,-5.86536 z"
         style="opacity:1;fill:#550000;fill-opacity:1;stroke:url(#linearGradient4391);stroke-width:5;stroke-linejoin:round;stroke-miterlimit:4;stroke-dasharray:none;stroke-dashoffset:81.09999847;stroke-opacity:1" />
    </g>
    <g
       id="g4445"
       transform="matrix(1.0039278,0,0,1.0039278,-0.34929609,-1.2029229)"
       inkscape:export-xdpi="90"
       inkscape:export-ydpi="90">
      <path
         inkscape:export-ydpi="90"
         inkscape:export-xdpi="90"
         sodipodi:nodetypes="cazazaccccccccc"
         inkscape:connector-curvature="0"
         id="rect4136"
         d="m 341.42857,262.3622 c 0,0 -7.95659,4.41538 -11.69203,7 -15.42816,10.67504 -21.70111,28.43965 -44.07789,35 -22.37678,6.56035 -46.06688,-6 -69.23008,-6 -23.1632,0 -46.8533,12.56035 -69.23008,6 -22.37678,-6.56035 -28.64973,-24.32497 -44.07788,-35 -3.735441,-2.58462 -11.692036,-7 -11.692036,-7 l 31.249996,-4 31.25,0 31.25,0 31.25,0 31.25,0 31.25,0 31.25,0 z"
         style="opacity:1;fill:#550000;fill-opacity:1;stroke:none;stroke-width:5;stroke-linejoin:round;stroke-miterlimit:4;stroke-dasharray:none;stroke-dashoffset:81.09999847;stroke-opacity:0.5273632" />
      <path
         inkscape:export-ydpi="90"
         inkscape:export-xdpi="90"
         style="opacity:1;fill:#550000;fill-opacity:1;stroke:none;stroke-width:5;stroke-linejoin:round;stroke-miterlimit:4;stroke-dasharray:none;stroke-dashoffset:81.09999847;stroke-opacity:0.5273632"
         d="m 187.57896,220.3622 c 10.86311,1.70733 17.85315,16 28.84961,16 10.99646,0 17.9865,-14.29267 28.84961,-16 9.98882,-1.56992 20.32758,2.22728 29.76186,5.86536 17.70327,6.82679 31.73325,21.00348 48.77782,29.33976 5.65222,2.76443 17.61071,6.79488 17.61071,6.79488 0,0 -20.76961,3.33198 -31.25,4 -10.39557,0.66261 -20.85443,0.66261 -31.25,0 -10.48038,-0.66802 -20.7683,-4.64707 -31.25,-4 -5.36607,0.33127 -10.34441,2.99012 -15.625,4 -5.15736,0.98632 -10.37417,2 -15.625,2 -5.25082,0 -10.46764,-1.01368 -15.625,-2 -5.28059,-1.00988 -10.25892,-3.66873 -15.625,-4 -10.4817,-0.64707 -20.76961,3.33198 -31.25,4 -10.39557,0.66261 -20.85443,0.66261 -31.25,0 -10.48038,-0.66802 -31.249996,-4 -31.249996,-4 0,0 11.958486,-4.03045 17.610716,-6.79488 17.04456,-8.33628 31.07454,-22.51297 48.77781,-29.33976 9.43428,-3.63808 19.77304,-7.43528 29.76186,-5.86536 z"
         id="path4139"
         inkscape:connector-curvature="0"
         sodipodi:nodetypes="aaaaacaaaaaaaaacaaa" />
      <path
         sodipodi:nodetypes="aaaaacaaaaaaaaacaaa"
         inkscape:connector-curvature="0"
         id="path4443"
         d="m 187.57896,220.3622 c 10.86311,1.70733 17.85315,16 28.84961,16 10.99646,0 17.9865,-14.29267 28.84961,-16 9.98882,-1.56992 20.32758,2.22728 29.76186,5.86536 17.70327,6.82679 31.73325,21.00348 48.77782,29.33976 5.65222,2.76443 17.61071,6.79488 17.61071,6.79488 0,0 -20.76961,3.33198 -31.25,4 -10.39557,0.66261 -20.85443,0.66261 -31.25,0 -10.48038,-0.66802 -20.7683,-4.64707 -31.25,-4 -5.36607,0.33127 -10.34441,2.99012 -15.625,4 -5.15736,0.98632 -10.37417,2 -15.625,2 -5.25082,0 -10.46764,-1.01368 -15.625,-2 -5.28059,-1.00988 -10.25892,-3.66873 -15.625,-4 -10.4817,-0.64707 -20.76961,3.33198 -31.25,4 -10.39557,0.66261 -20.85443,0.66261 -31.25,0 -10.48038,-0.66802 -31.249996,-4 -31.249996,-4 0,0 11.958486,-4.03045 17.610716,-6.79488 17.04456,-8.33628 31.07454,-22.51297 48.77781,-29.33976 9.43428,-3.63808 19.77304,-7.43528 29.76186,-5.86536 z"
         style="opacity:1;fill:#550000;fill-opacity:1;stroke:#ffffff;stroke-width:5;stroke-linejoin:round;stroke-miterlimit:4;stroke-dasharray:none;stroke-dashoffset:81.09999847;stroke-opacity:0.36815922"
         inkscape:export-xdpi="90"
         inkscape:export-ydpi="90" />
      <g
         inkscape:export-ydpi="90"
         inkscape:export-xdpi="90"
         transform="matrix(0.98173345,0,0,0.98173345,41.989153,104.86677)"
         style="fill:#ffffff;fill-opacity:1;stroke:#ffffff;stroke-width:2;stroke-linecap:round;stroke-linejoin:miter;stroke-miterlimit:4;stroke-dasharray:none;stroke-opacity:0.73631843"
         id="g4375">
        <path
           inkscape:connector-curvature="0"
           id="path4377"
           style="font-style:normal;font-weight:normal;font-size:35px;line-height:125%;font-family:sans-serif;letter-spacing:0px;word-spacing:0px;fill:#ffffff;fill-opacity:1;stroke:#ffffff;stroke-width:2;stroke-linecap:round;stroke-linejoin:miter;stroke-miterlimit:4;stroke-dasharray:none;stroke-opacity:0.73631843"
           d="m 132.43942,137.30858 0,5.8399 q -3.40908,-1.63043 -6.43278,-2.43081 -3.02371,-0.8004 -5.8399,-0.8004 -4.89129,0 -7.55927,1.89723 -2.63833,1.89722 -2.63833,5.39523 0,2.93478 1.74901,4.44663 1.77865,1.48221 6.69958,2.40118 l 3.61659,0.7411 q 6.69958,1.27471 9.8715,4.50592 3.20157,3.20156 3.20157,8.5968 0,6.43279 -4.32804,9.75293 -4.29841,3.32014 -12.62842,3.32014 -3.14228,0 -6.69958,-0.71145 -3.52765,-0.71147 -7.32211,-2.10474 l 0,-6.16599 q 3.64624,2.04545 7.14425,3.08301 3.49801,1.03753 6.87744,1.03753 5.12844,0 7.915,-2.0158 2.78655,-2.0158 2.78655,-5.75097 0,-3.26085 -2.01581,-5.09879 -1.98615,-1.83794 -6.55136,-2.75691 l -3.64623,-0.71145 q -6.69958,-1.334 -9.69364,-4.17983 -2.99406,-2.84585 -2.99406,-7.915 0,-5.86954 4.12054,-9.24898 4.15018,-3.37943 11.413,-3.37943 3.11264,0 6.34385,0.56323 3.23122,0.56324 6.61065,1.68972 z" />
        <path
           inkscape:connector-curvature="0"
           id="path4379"
           style="font-style:normal;font-weight:normal;font-size:35px;line-height:125%;font-family:sans-serif;letter-spacing:0px;word-spacing:0px;fill:#ffffff;fill-opacity:1;stroke:#ffffff;stroke-width:2;stroke-linecap:round;stroke-linejoin:miter;stroke-miterlimit:4;stroke-dasharray:none;stroke-opacity:0.73631843"
           d="m 154.27136,163.4251 q -6.61066,0 -9.16006,1.51185 -2.54939,1.51185 -2.54939,5.15808 0,2.90513 1.89723,4.62449 1.92687,1.68972 5.21737,1.68972 4.53556,0 7.26282,-3.20157 2.75691,-3.23122 2.75691,-8.56717 l 0,-1.2154 -5.42488,0 z m 10.87941,-2.25296 0,18.94262 -5.45453,0 0,-5.0395 q -1.86758,3.02369 -4.65414,4.47625 -2.78654,1.42292 -6.81815,1.42292 -5.09879,0 -8.12251,-2.84583 -2.99405,-2.87549 -2.99405,-7.67784 0,-5.60275 3.73516,-8.4486 3.76481,-2.84583 11.2055,-2.84583 l 7.64819,0 0,-0.5336 q 0,-3.7648 -2.49011,-5.81025 -2.46047,-2.0751 -6.93673,-2.0751 -2.84585,0 -5.54346,0.68183 -2.69763,0.68182 -5.18774,2.04544 l 0,-5.0395 q 2.99407,-1.15613 5.81026,-1.71938 2.8162,-0.59287 5.48416,-0.59287 7.20355,0 10.76085,3.73517 3.5573,3.73516 3.5573,11.32407 z" />
        <path
           inkscape:connector-curvature="0"
           id="path4381"
           style="font-style:normal;font-weight:normal;font-size:35px;line-height:125%;font-family:sans-serif;letter-spacing:0px;word-spacing:0px;fill:#ffffff;fill-opacity:1;stroke:#ffffff;stroke-width:2;stroke-linecap:round;stroke-linejoin:miter;stroke-miterlimit:4;stroke-dasharray:none;stroke-opacity:0.73631843"
           d="m 180.87799,183.19775 c -1.5415,3.95255 -3.04347,6.53159 -4.50592,7.73712 -1.46245,1.20553 -3.41896,1.8083 -5.86955,1.8083 l -66.35769,0 8,-2.28259 -8,-2.2826 65.20158,0 c 1.50197,0 2.66798,-0.35573 3.49801,-1.0672 0.83003,-0.71146 1.749,-2.3913 2.7569,-5.03951 l 0.97826,-2.49011 -13.42881,-32.66787 5.78062,0 10.37545,25.9683 10.37546,-25.9683 5.78061,0 z"
           sodipodi:nodetypes="csscccsscccccccc" />
        <path
           inkscape:connector-curvature="0"
           id="path4383"
           style="font-style:normal;font-weight:normal;font-size:35px;line-height:125%;font-family:sans-serif;letter-spacing:0px;word-spacing:0px;fill:#ffffff;fill-opacity:1;stroke:#ffffff;stroke-width:2;stroke-linecap:round;stroke-linejoin:miter;stroke-miterlimit:4;stroke-dasharray:none;stroke-opacity:0.73631843"
           d="m 206.028,135.85602 5.98813,0 0,5.53234 0,5.53234 0,5.53235 0,5.53234 0,5.53234 0,5.53234 0,5.53235 0,5.53234 -5.98813,0 0,-5.53234 0,-5.53235 0,-5.53234 0,-5.53234 0,-5.53234 0,-5.53235 0,-5.53234 z"
           sodipodi:nodetypes="ccccccccccccccccccc" />
        <path
           inkscape:connector-curvature="0"
           id="path4385"
           style="font-style:normal;font-weight:normal;font-size:35px;line-height:125%;font-family:sans-serif;letter-spacing:0px;word-spacing:0px;fill:#ffffff;fill-opacity:1;stroke:#ffffff;stroke-width:2;stroke-linecap:round;stroke-linejoin:miter;stroke-miterlimit:4;stroke-dasharray:none;stroke-opacity:0.73631843"
           d="m 223.50227,137.48644 0,9.42685 11.23513,0 0,4.23912 -11.23513,0 0,18.02366 c 0,2.7075 0.36561,4.44662 1.09682,5.21736 0.75099,0.77075 4.26284,1.15612 6.53557,1.15612 l 1.60274,0 0,4.56521 -3.60274,0 c -4.20947,0 -7.11461,-0.78063 -8.7154,-2.34189 -1.60079,-1.58103 -2.40118,-4.44663 -2.40118,-8.5968 l 0,-18.02366 -4.00195,0 0,-4.23912 4.00195,0 0,-9.42685 z"
           sodipodi:nodetypes="cccccscsccscscccccc" />
        <path
           inkscape:connector-curvature="0"
           id="path4387"
           style="font-style:normal;font-weight:normal;font-size:35px;line-height:125%;font-family:sans-serif;letter-spacing:0px;word-spacing:0px;fill:#ffffff;fill-opacity:1;stroke:#ffffff;stroke-width:2;stroke-linecap:round;stroke-linejoin:miter;stroke-miterlimit:4;stroke-dasharray:none;stroke-opacity:0.73631843"
           d="m 237.85352,173.77296 c 1.83507,-1.83507 5.95046,-1.83507 7.78553,0 1.68621,1.68621 1.68621,5.46777 0,7.15398 -1.83507,1.83507 -5.95046,1.83507 -7.78553,0 -1.68621,-1.68621 -1.68621,-5.46777 0,-7.15398 z m 0.77123,-37.91694 6.2579,0 0,33.05088 -3.11939,0.34948 -3.13851,-0.35076 z"
           sodipodi:nodetypes="aaaaacccccc" />
      </g>
    </g>
    <g
       id="g4513"
       transform="matrix(0.25694419,0,0,0.25694419,69.84717,430.41013)"
       inkscape:export-xdpi="90"
       inkscape:export-ydpi="90"
       style="stroke-width:7.78379149;stroke-miterlimit:4;stroke-dasharray:none">
      <g
         transform="matrix(1.5067448,0,0,1.5067448,-460.48205,184.45327)"
         id="g4508"
         style="stroke-width:5.16596539;stroke-miterlimit:4;stroke-dasharray:none">
        <path
           style="opacity:1;fill:#323232;fill-opacity:1;stroke:none;stroke-width:5.16596539;stroke-linecap:round;stroke-linejoin:miter;stroke-miterlimit:4;stroke-dasharray:none;stroke-dashoffset:81.09999847;stroke-opacity:0.36815945"
           d="m 369.10974,122.45434 c 0.94585,-2.76453 3.67354,-4.92449 6.39026,-6 19.50941,-7.72352 41.96522,0 62.94783,0 l 79.55217,0 c 0,0 6.18291,-0.14719 7.78593,2 1.96722,2.635 0.62064,6.72043 -0.36251,9.85836 -1.40942,4.49845 -6.66083,7.29078 -7.63749,11.90257 -5.43375,25.65808 26.9461,56.20921 12,77.76093 -13.06488,18.83908 -44.41218,13.93403 -67.3381,14 -23.57901,0.0678 -51.2576,1.12907 -69.33809,-14 -10.21818,-8.55019 -16.03095,-21.00111 -19.80971,-34.41684 -2.90755,-10.32263 3.38912,-13.21647 1.80971,-23.34409 -1.53205,-9.82394 -10.12572,-25.70231 -6,-37.76093 z"
           id="rect4457"
           inkscape:connector-curvature="0"
           sodipodi:nodetypes="aaacaaaaasssa" />
        <path
           style="opacity:1;fill:#ffffff;fill-opacity:1;stroke:none;stroke-width:5.16596539;stroke-linecap:round;stroke-linejoin:miter;stroke-miterlimit:4;stroke-dasharray:none;stroke-dashoffset:81.09999847;stroke-opacity:0.36815945"
           d="m 377.395,124.59647 c 0,0 15.90103,-3.89311 24.0184,-4.04252 11.33389,-0.20861 22.59786,4.10346 33.72073,4.40648 14.16765,0.38597 35.35763,0.52266 53.03655,0.39884 8.05481,-0.0564 24.15942,-0.52016 24.15942,-0.52016 0,0 0.89931,5.99135 1.00862,9.01219 0.27159,7.50584 -0.88117,22.51502 -0.88117,22.51502 0,0 -36.60635,13.09857 -47.16378,15.42317 -17.32457,3.81462 -38.84153,-4.49988 -57.21346,-10.7458 -7.57563,-2.57549 -16.10077,-4.87476 -21.40406,-10.86629 -6.01208,-6.79231 -9.28125,-25.58093 -9.28125,-25.58093 z"
           id="rect4460"
           inkscape:connector-curvature="0"
           sodipodi:nodetypes="casacacsaac" />
        <path
           style="opacity:1;fill:#ffffff;fill-opacity:1;stroke:none;stroke-width:5.16596539;stroke-linecap:round;stroke-linejoin:miter;stroke-miterlimit:4;stroke-dasharray:none;stroke-dashoffset:81.09999847;stroke-opacity:0.36815945"
           d="m 389,189.3622 c 0,0 48.96484,-4.2318 73.5,-4 18.21472,0.17209 54.5,4 54.5,4 0,0 6.76029,13.22377 4.5,19.5 -2.34765,6.51879 -9.95567,10.38826 -16.51399,12.62311 -12.65666,4.31296 -26.74589,0.47769 -40.11365,0.1686 -11.49332,-0.26574 -23.19878,0.64499 -34.44531,-1.73884 -9.58282,-2.03119 -19.71069,-4.51846 -27.42705,-10.55287 -6.41029,-5.01302 -14,-20 -14,-20 z"
           id="rect4463"
           inkscape:connector-curvature="0"
           sodipodi:nodetypes="cacaaaaac" />
      </g>
      <g
         transform="matrix(0.99597694,-0.08960988,0.08960988,0.99597694,-39.136306,52.711235)"
         id="g4498"
         style="stroke-width:7.78379151;stroke-miterlimit:4;stroke-dasharray:none">
        <path
           id="rect4466"
           transform="matrix(0.99597694,0.08960988,-0.08960988,0.99597694,43.702306,-48.992175)"
           d="m 542.52344,338.26367 -135.50782,12.19336 0.19532,0.99805 -14.60352,33.00781 45.03516,86.48828 -66.4082,34.57813 40.80078,52.49023 107.42187,-83.49609 -25.44336,-26.58594 -47.07617,-52.7168 101.54492,9.25782 -5.95898,-66.21485 z"
           style="opacity:1;fill:#323232;fill-opacity:1;stroke:#ecefec;stroke-width:7.78379153;stroke-linecap:round;stroke-linejoin:miter;stroke-miterlimit:4;stroke-dasharray:none;stroke-dashoffset:81.09999847;stroke-opacity:0.66666669"
           inkscape:connector-curvature="0" />
        <path
           style="opacity:1;fill:#323232;fill-opacity:1;stroke:#ecefec;stroke-width:7.78379151;stroke-linecap:round;stroke-linejoin:miter;stroke-miterlimit:4;stroke-dasharray:none;stroke-dashoffset:81.09999847;stroke-opacity:0.66666669"
           d="m 580.10221,421.75547 -34.71796,-3.33405 0.0653,0.18196 -0.28475,-0.0284 -24.64866,72.63025 c 0,0 7.94662,20.39701 11.40541,28.89748 l 71.42304,-1.62865 3.12839,22.53276 21.50856,-20.17744 c 0.79794,-8.70726 6.67353,-77.74687 6.67353,-77.74687 0,0 -39.47338,-15.67895 -54.55285,-21.32699 z m 13.34174,25.39035 6.94544,50.02866 -50.97313,-3.80999 18.20085,-43.67164 z"
           id="path4473"
           inkscape:connector-curvature="0"
           sodipodi:nodetypes="ccccccccccccccccc" />
        <path
           style="opacity:1;fill:#323232;fill-opacity:1;stroke:#ecefec;stroke-width:2.00000002;stroke-linecap:round;stroke-linejoin:miter;stroke-miterlimit:4;stroke-dasharray:none;stroke-dashoffset:81.09999847;stroke-opacity:0.66666669"
           d="M 240.23047 537.82422 L 234.08203 546.27344 L 244.20508 558.23633 L 234.98438 578.72461 L 241.85742 579.24414 L 255.03711 558.9043 L 254.80273 558.86133 L 266.35156 541.04102 L 256.07617 539.13281 L 249.71094 553.2793 L 240.23047 537.82422 z "
           transform="matrix(3.8762384,0.34875231,-0.34875231,3.8762384,-76.935451,-1741.7238)"
           id="path4481" />
      </g>
      <path
         style="opacity:1;fill:#323232;fill-opacity:1;stroke:#ecefec;stroke-width:2.00000002;stroke-linecap:round;stroke-linejoin:miter;stroke-miterlimit:4;stroke-dasharray:none;stroke-dashoffset:81.09999847;stroke-opacity:0.66666669"
         d="M 316.16992 522.33984 L 306.1875 523.66602 L 305.03125 532.26953 L 292.52148 532.26953 L 293.55078 542.24219 L 303.44727 544.04883 L 300.19727 568.24023 L 315.82227 568.48633 L 315.98828 546.33984 L 324.5 547.89453 L 324.5 532.26953 L 316.0957 532.26953 L 316.16992 522.33984 z "
         transform="matrix(3.8918957,0,0,3.8918957,-271.8379,-1675.1114)"
         id="path4487" />
      <path
         style="opacity:1;fill:#323232;fill-opacity:1;stroke:#ecefec;stroke-width:7.78379149;stroke-linecap:round;stroke-linejoin:miter;stroke-miterlimit:4;stroke-dasharray:none;stroke-dashoffset:81.09999847;stroke-opacity:0.66666669"
         d="m 861.22257,537.0339 -1.35444,-200.81095 -52.80759,1.06798 15.30961,193.97027 z"
         id="path4491"
         inkscape:connector-curvature="0"
         sodipodi:nodetypes="ccccc" />
      <path
         sodipodi:nodetypes="ccccc"
         inkscape:connector-curvature="0"
         id="path4493"
         d="m 1084.6683,466.32322 -1.3544,-142.82819 -60.8076,0.75961 23.3096,137.96271 z"
         style="opacity:1;fill:#323232;fill-opacity:1;stroke:#ecefec;stroke-width:7.78379149;stroke-linecap:round;stroke-linejoin:miter;stroke-miterlimit:4;stroke-dasharray:none;stroke-dashoffset:81.09999847;stroke-opacity:0.66666669" />
      <path
         style="opacity:1;fill:#323232;fill-opacity:1;stroke:#ecefec;stroke-width:7.78379149;stroke-linecap:round;stroke-linejoin:miter;stroke-miterlimit:4;stroke-dasharray:none;stroke-dashoffset:81.09999847;stroke-opacity:0.66666669"
         d="m 1090.3252,537.0339 -0.9846,-52.31852 -44.2068,0.27825 16.9459,50.53627 z"
         id="path4495"
         inkscape:connector-curvature="0"
         sodipodi:nodetypes="ccccc" />
    </g>
  </g>
</svg>
